# xmcd
#
# Track frame offsets: 
#        150
#        12565
#        23625
#        34877
#        48118
#        59604
#        69420
#        81386
#        99383
#        111270
#        126022
#        139658
#        154427
#        165663
#        176149
#        185798
#        195931
#        206355
#        220055
#        231361
#        243429
#        253946
#        266742
#
# Disc length: 3779 seconds
#
# Revision: 1
# Processed by: cddbd v1.5.2PL0 Copyright (c) Steve Scherf et al.
# Submitted via: ExactAudioCopyFreeDBPlugin 1.0
#
DISCID=510ec117
DTITLE=Don Bryant - The Complete Don Bryant on Hi Records
DYEAR=2000
DGENRE=Soul
TTITLE0=She's Lookin' Good
TTITLE1=You're a Wonderful One
TTITLE2=Funky Broadway
TTITLE3=Can I Chance My Mind
TTITLE4=Soul Man
TTITLE5=Land of 1000 Dances
TTITLE6=Slip Away
TTITLE7=For Your Precious Love
TTITLE8=Expressway to Your Heart
TTITLE9=Try Me
TTITLE10=When Something is Wrong with My Baby
TTITLE11=Cry Baby
TTITLE12=Did You Ever Have the Blues
TTITLE13=With Your Hand in My Hand
TTITLE14=Run to Me
TTITLE15=It Ain't Easy
TTITLE16=Coming on Strong (stereo remix)
TTITLE17=Clear Days and Stormy Nights
TTITLE18=Walkie Talkie Love
TTITLE19=I Stuck By You
TTITLE20=Hurt No Longer
TTITLE21=Sure is Good (duet with Ann Peebles)
TTITLE22=Mon Belle Amour
EXTD=YEAR: 1965
EXTT0=
EXTT1=
EXTT2=
EXTT3=
EXTT4=
EXTT5=
EXTT6=
EXTT7=
EXTT8=
EXTT9=
EXTT10=
EXTT11=
EXTT12=
EXTT13=
EXTT14=
EXTT15=
EXTT16=
EXTT17=
EXTT18=
EXTT19=
EXTT20=
EXTT21=
EXTT22=
PLAYORDER=
